<svg xmlns="http://www.w3.org/2000/svg" viewBox="0 0 1280 320" role="img" aria-labelledby="title desc">
  <title id="title">Local Registry</title><desc id="desc">Registro OCI local con mantenimiento y sincronización de clúster</desc>
  <defs><linearGradient id="bg" x1="0" y1="0" x2="1" y2="1"><stop stop-color="#071015"/><stop offset="1" stop-color="#17242b"/></linearGradient><pattern id="grid" width="32" height="32" patternUnits="userSpaceOnUse"><path d="M32 0H0v32" fill="none" stroke="#ff9f43" stroke-opacity=".07"/></pattern></defs>
  <rect width="1280" height="320" rx="28" fill="url(#bg)"/><rect width="1280" height="320" rx="28" fill="url(#grid)"/>
  <g transform="translate(70 48)"><rect width="224" height="224" rx="52" fill="#0b1920" stroke="#ff9f43" stroke-width="4"/><path d="m112 35 70 35-70 36-70-36z" fill="none" stroke="#ff9f43" stroke-width="9" stroke-linejoin="round"/><path d="m42 101 70 36 70-36M42 134l70 36 70-36M42 167l70 36 70-36" fill="none" stroke="#12cddd" stroke-width="9" stroke-linecap="round" stroke-linejoin="round"/><circle cx="181" cy="178" r="17" fill="#071015" stroke="#55df9a" stroke-width="7"/><path d="m174 178 5 5 10-11" fill="none" stroke="#55df9a" stroke-width="5" stroke-linecap="round"/></g>
  <text x="350" y="132" font-family="ui-monospace,SFMono-Regular,Consolas,monospace" font-size="66" font-weight="800" letter-spacing="3" fill="#eafaff">LOCAL REGISTRY</text>
  <text x="354" y="185" font-family="ui-monospace,SFMono-Regular,Consolas,monospace" font-size="22" font-weight="700" letter-spacing="1.5" fill="#ff9f43">REGISTRO OCI · CLÚSTER · RETENCIÓN · MANTENIMIENTO</text>
  <text x="354" y="232" font-family="Inter,Segoe UI,sans-serif" font-size="23" fill="#93afbd">Imágenes cerca de tus nodos, con control y trazabilidad.</text>
  <path d="M354 259h720" stroke="#12cddd" stroke-width="4" stroke-linecap="round"/><circle cx="1097" cy="259" r="8" fill="#12cddd"/>
</svg>
